<svg xmlns="http://www.w3.org/2000/svg" width="800" height="300" viewBox="0 0 800 300">
<defs>
<path id="p0" d="M 20.00,150.00 L 23.82,153.15 L 27.64,156.29 L 31.46,159.38 L 35.28,162.42 L 39.10,165.38 L 42.91,168.24 L 46.73,170.99 L 50.55,173.61 L 54.37,176.09 L 58.19,178.40 L 62.01,180.53 L 65.83,182.47 L 69.65,184.21 L 73.47,185.74 L 77.29,187.05 L 81.11,188.12 L 84.92,188.96 L 88.74,189.55 L 92.56,189.90 L 96.38,190.00 L 100.20,189.85 L 104.02,189.45 L 107.84,188.81 L 111.66,187.92 L 115.48,186.80 L 119.30,185.45 L 123.12,183.88 L 126.93,182.10 L 130.75,180.12 L 134.57,177.95 L 138.39,175.60 L 142.21,173.10 L 146.03,170.45 L 149.85,167.68 L 153.67,164.80 L 157.49,161.82 L 161.31,158.77 L 165.13,155.66 L 168.94,152.52 L 172.76,149.37 L 176.58,146.22 L 180.40,143.09 L 184.22,140.00 L 188.04,136.98 L 191.86,134.04 L 195.68,131.20 L 199.50,128.47 L 203.32,125.88 L 207.14,123.44 L 210.95,121.16 L 214.77,119.07 L 218.59,117.16 L 222.41,115.46 L 226.23,113.98 L 230.05,112.72 L 233.87,111.69 L 237.69,110.90 L 241.51,110.36 L 245.33,110.06 L 249.15,110.01 L 252.96,110.21 L 256.78,110.66 L 260.60,111.35 L 264.42,112.28 L 268.24,113.45 L 272.06,114.84 L 275.88,116.46 L 279.70,118.28 L 283.52,120.30 L 287.34,122.51 L 291.16,124.88 L 294.97,127.42 L 298.79,130.09 L 302.61,132.89 L 306.43,135.79 L 310.25,138.79 L 314.07,141.85 L 317.89,144.96 L 321.71,148.11 L 325.53,151.26 L 329.35,154.41 L 333.17,157.53 L 336.98,160.61 L 340.80,163.61 L 344.62,166.54 L 348.44,169.36 L 352.26,172.06 L 356.08,174.62 L 359.90,177.03 L 363.72,179.27 L 367.54,181.33 L 371.36,183.19 L 375.18,184.85 L 378.99,186.29 L 382.81,187.50 L 386.63,188.48 L 390.45,189.22 L 394.27,189.72 L 398.09,189.97 L 401.91,189.97 L 405.73,189.72 L 409.55,189.22 L 413.37,188.48 L 417.19,187.50 L 421.01,186.29 L 424.82,184.85 L 428.64,183.19 L 432.46,181.33 L 436.28,179.27 L 440.10,177.03 L 443.92,174.62 L 447.74,172.06 L 451.56,169.36 L 455.38,166.54 L 459.20,163.61 L 463.02,160.61 L 466.83,157.53 L 470.65,154.41 L 474.47,151.26 L 478.29,148.11 L 482.11,144.96 L 485.93,141.85 L 489.75,138.79 L 493.57,135.79 L 497.39,132.89 L 501.21,130.09 L 505.03,127.42 L 508.84,124.88 L 512.66,122.51 L 516.48,120.30 L 520.30,118.28 L 524.12,116.46 L 527.94,114.84 L 531.76,113.45 L 535.58,112.28 L 539.40,111.35 L 543.22,110.66 L 547.04,110.21 L 550.85,110.01 L 554.67,110.06 L 558.49,110.36 L 562.31,110.90 L 566.13,111.69 L 569.95,112.72 L 573.77,113.98 L 577.59,115.46 L 581.41,117.16 L 585.23,119.07 L 589.05,121.16 L 592.86,123.44 L 596.68,125.88 L 600.50,128.47 L 604.32,131.20 L 608.14,134.04 L 611.96,136.98 L 615.78,140.00 L 619.60,143.09 L 623.42,146.22 L 627.24,149.37 L 631.06,152.52 L 634.87,155.66 L 638.69,158.77 L 642.51,161.82 L 646.33,164.80 L 650.15,167.68 L 653.97,170.45 L 657.79,173.10 L 661.61,175.60 L 665.43,177.95 L 669.25,180.12 L 673.07,182.10 L 676.88,183.88 L 680.70,185.45 L 684.52,186.80 L 688.34,187.92 L 692.16,188.81 L 695.98,189.45 L 699.80,189.85 L 703.62,190.00 L 707.44,189.90 L 711.26,189.55 L 715.08,188.96 L 718.89,188.12 L 722.71,187.05 L 726.53,185.74 L 730.35,184.21 L 734.17,182.47 L 737.99,180.53 L 741.81,178.40 L 745.63,176.09 L 749.45,173.61 L 753.27,170.99 L 757.09,168.24 L 760.90,165.38 L 764.72,162.42 L 768.54,159.38 L 772.36,156.29 L 776.18,153.15 L 780.00,150.00" fill="none" stroke="#ccc" stroke-width="1"/>
</defs>
<path d="M 20.00,150.00 L 23.82,153.15 L 27.64,156.29 L 31.46,159.38 L 35.28,162.42 L 39.10,165.38 L 42.91,168.24 L 46.73,170.99 L 50.55,173.61 L 54.37,176.09 L 58.19,178.40 L 62.01,180.53 L 65.83,182.47 L 69.65,184.21 L 73.47,185.74 L 77.29,187.05 L 81.11,188.12 L 84.92,188.96 L 88.74,189.55 L 92.56,189.90 L 96.38,190.00 L 100.20,189.85 L 104.02,189.45 L 107.84,188.81 L 111.66,187.92 L 115.48,186.80 L 119.30,185.45 L 123.12,183.88 L 126.93,182.10 L 130.75,180.12 L 134.57,177.95 L 138.39,175.60 L 142.21,173.10 L 146.03,170.45 L 149.85,167.68 L 153.67,164.80 L 157.49,161.82 L 161.31,158.77 L 165.13,155.66 L 168.94,152.52 L 172.76,149.37 L 176.58,146.22 L 180.40,143.09 L 184.22,140.00 L 188.04,136.98 L 191.86,134.04 L 195.68,131.20 L 199.50,128.47 L 203.32,125.88 L 207.14,123.44 L 210.95,121.16 L 214.77,119.07 L 218.59,117.16 L 222.41,115.46 L 226.23,113.98 L 230.05,112.72 L 233.87,111.69 L 237.69,110.90 L 241.51,110.36 L 245.33,110.06 L 249.15,110.01 L 252.96,110.21 L 256.78,110.66 L 260.60,111.35 L 264.42,112.28 L 268.24,113.45 L 272.06,114.84 L 275.88,116.46 L 279.70,118.28 L 283.52,120.30 L 287.34,122.51 L 291.16,124.88 L 294.97,127.42 L 298.79,130.09 L 302.61,132.89 L 306.43,135.79 L 310.25,138.79 L 314.07,141.85 L 317.89,144.96 L 321.71,148.11 L 325.53,151.26 L 329.35,154.41 L 333.17,157.53 L 336.98,160.61 L 340.80,163.61 L 344.62,166.54 L 348.44,169.36 L 352.26,172.06 L 356.08,174.62 L 359.90,177.03 L 363.72,179.27 L 367.54,181.33 L 371.36,183.19 L 375.18,184.85 L 378.99,186.29 L 382.81,187.50 L 386.63,188.48 L 390.45,189.22 L 394.27,189.72 L 398.09,189.97 L 401.91,189.97 L 405.73,189.72 L 409.55,189.22 L 413.37,188.48 L 417.19,187.50 L 421.01,186.29 L 424.82,184.85 L 428.64,183.19 L 432.46,181.33 L 436.28,179.27 L 440.10,177.03 L 443.92,174.62 L 447.74,172.06 L 451.56,169.36 L 455.38,166.54 L 459.20,163.61 L 463.02,160.61 L 466.83,157.53 L 470.65,154.41 L 474.47,151.26 L 478.29,148.11 L 482.11,144.96 L 485.93,141.85 L 489.75,138.79 L 493.57,135.79 L 497.39,132.89 L 501.21,130.09 L 505.03,127.42 L 508.84,124.88 L 512.66,122.51 L 516.48,120.30 L 520.30,118.28 L 524.12,116.46 L 527.94,114.84 L 531.76,113.45 L 535.58,112.28 L 539.40,111.35 L 543.22,110.66 L 547.04,110.21 L 550.85,110.01 L 554.67,110.06 L 558.49,110.36 L 562.31,110.90 L 566.13,111.69 L 569.95,112.72 L 573.77,113.98 L 577.59,115.46 L 581.41,117.16 L 585.23,119.07 L 589.05,121.16 L 592.86,123.44 L 596.68,125.88 L 600.50,128.47 L 604.32,131.20 L 608.14,134.04 L 611.96,136.98 L 615.78,140.00 L 619.60,143.09 L 623.42,146.22 L 627.24,149.37 L 631.06,152.52 L 634.87,155.66 L 638.69,158.77 L 642.51,161.82 L 646.33,164.80 L 650.15,167.68 L 653.97,170.45 L 657.79,173.10 L 661.61,175.60 L 665.43,177.95 L 669.25,180.12 L 673.07,182.10 L 676.88,183.88 L 680.70,185.45 L 684.52,186.80 L 688.34,187.92 L 692.16,188.81 L 695.98,189.45 L 699.80,189.85 L 703.62,190.00 L 707.44,189.90 L 711.26,189.55 L 715.08,188.96 L 718.89,188.12 L 722.71,187.05 L 726.53,185.74 L 730.35,184.21 L 734.17,182.47 L 737.99,180.53 L 741.81,178.40 L 745.63,176.09 L 749.45,173.61 L 753.27,170.99 L 757.09,168.24 L 760.90,165.38 L 764.72,162.42 L 768.54,159.38 L 772.36,156.29 L 776.18,153.15 L 780.00,150.00" fill="none" stroke="#e0e0e0" stroke-width="1"/>
<text font-family="sans-serif" font-size="14px" letter-spacing="0.5px">
  <textPath href="#p0" startOffset="0">Compression methods reduce redundancy. Our ATC scheme encodes letters in carriers and uses style bytes for spacing, punctuation, and capitalization. Range coding these styles cuts entropy to under 4 bits per character.
</textPath>
</text>
</svg>