<svg xmlns="http://www.w3.org/2000/svg" width="800" height="300" viewBox="0 0 800 300">
<defs>
<path id="p0" d="M 20,150 L 24,153 L 28,156 L 31,159 L 35,162 L 39,165 L 43,168 L 47,171 L 51,174 L 54,176 L 58,178 L 62,181 L 66,182 L 70,184 L 73,186 L 77,187 L 81,188 L 85,189 L 89,190 L 93,190 L 96,190 L 100,190 L 104,189 L 108,189 L 112,188 L 115,187 L 119,185 L 123,184 L 127,182 L 131,180 L 135,178 L 138,176 L 142,173 L 146,170 L 150,168 L 154,165 L 157,162 L 161,159 L 165,156 L 169,153 L 173,149 L 177,146 L 180,143 L 184,140 L 188,137 L 192,134 L 196,131 L 199,128 L 203,126 L 207,123 L 211,121 L 215,119 L 219,117 L 222,115 L 226,114 L 230,113 L 234,112 L 238,111 L 242,110 L 245,110 L 249,110 L 253,110 L 257,111 L 261,111 L 264,112 L 268,113 L 272,115 L 276,116 L 280,118 L 284,120 L 287,123 L 291,125 L 295,127 L 299,130 L 303,133 L 306,136 L 310,139 L 314,142 L 318,145 L 322,148 L 326,151 L 329,154 L 333,158 L 337,161 L 341,164 L 345,167 L 348,169 L 352,172 L 356,175 L 360,177 L 364,179 L 368,181 L 371,183 L 375,185 L 379,186 L 383,188 L 387,188 L 390,189 L 394,190 L 398,190 L 402,190 L 406,190 L 410,189 L 413,188 L 417,188 L 421,186 L 425,185 L 429,183 L 432,181 L 436,179 L 440,177 L 444,175 L 448,172 L 452,169 L 455,167 L 459,164 L 463,161 L 467,158 L 471,154 L 474,151 L 478,148 L 482,145 L 486,142 L 490,139 L 494,136 L 497,133 L 501,130 L 505,127 L 509,125 L 513,123 L 516,120 L 520,118 L 524,116 L 528,115 L 532,113 L 536,112 L 539,111 L 543,111 L 547,110 L 551,110 L 555,110 L 558,110 L 562,111 L 566,112 L 570,113 L 574,114 L 578,115 L 581,117 L 585,119 L 589,121 L 593,123 L 597,126 L 601,128 L 604,131 L 608,134 L 612,137 L 616,140 L 620,143 L 623,146 L 627,149 L 631,153 L 635,156 L 639,159 L 643,162 L 646,165 L 650,168 L 654,170 L 658,173 L 662,176 L 665,178 L 669,180 L 673,182 L 677,184 L 681,185 L 685,187 L 688,188 L 692,189 L 696,189 L 700,190 L 704,190 L 707,190 L 711,190 L 715,189 L 719,188 L 723,187 L 727,186 L 730,184 L 734,182 L 738,181 L 742,178 L 746,176 L 749,174 L 753,171 L 757,168 L 761,165 L 765,162 L 769,159 L 772,156 L 776,153 L 780,150 L 220,150 L 224,153 L 228,156 L 231,159 L 235,162 L 239,165 L 243,168 L 247,171 L 251,174 L 254,176 L 258,178 L 262,181 L 266,182 L 270,184 L 273,186 L 277,187 L 281,188 L 285,189 L 289,190 L 293,190 L 296,190 L 300,190 L 304,189 L 308,189 L 312,188 L 315,187 L 319,185 L 323,184 L 327,182 L 331,180 L 335,178 L 338,176 L 342,173 L 346,170 L 350,168 L 354,165 L 357,162 L 361,159 L 365,156 L 369,153 L 373,149 L 377,146 L 380,143 L 384,140 L 388,137 L 392,134 L 396,131 L 399,128 L 403,126 L 407,123 L 411,121 L 415,119 L 419,117 L 422,115 L 426,114 L 430,113 L 434,112 L 438,111 L 442,110 L 445,110 L 449,110 L 453,110 L 457,111 L 461,111 L 464,112 L 468,113 L 472,115 L 476,116 L 480,118 L 484,120 L 487,123 L 491,125 L 495,127 L 499,130 L 503,133 L 506,136 L 510,139 L 514,142 L 518,145 L 522,148 L 526,151 L 529,154 L 533,158 L 537,161 L 541,164 L 545,167 L 548,169 L 552,172 L 556,175 L 560,177 L 564,179 L 568,181 L 571,183 L 575,185 L 579,186 L 583,188 L 587,188 L 590,189 L 594,190 L 598,190 L 602,190 L 606,190 L 610,189 L 613,188 L 617,188 L 621,186 L 625,185 L 629,183 L 632,181 L 636,179 L 640,177 L 644,175 L 648,172 L 652,169 L 655,167 L 659,164 L 663,161 L 667,158 L 671,154 L 674,151 L 678,148 L 682,145 L 686,142 L 690,139 L 694,136 L 697,133 L 701,130 L 705,127 L 709,125 L 713,123 L 716,120 L 720,118 L 724,116 L 728,115 L 732,113 L 736,112 L 739,111 L 743,111 L 747,110 L 751,110 L 755,110 L 758,110 L 762,111 L 766,112 L 770,113 L 774,114 L 778,115 L 781,117 L 785,119 L 789,121 L 793,123 L 797,126 L 801,128 L 804,131 L 808,134 L 812,137 L 816,140 L 820,143 L 823,146 L 827,149 L 831,153 L 835,156 L 839,159 L 843,162 L 846,165 L 850,168 L 854,170 L 858,173 L 862,176 L 865,178 L 869,180 L 873,182 L 877,184 L 881,185 L 885,187 L 888,188 L 892,189 L 896,189 L 900,190 L 904,190 L 907,190 L 911,190 L 915,189 L 919,188 L 923,187 L 927,186 L 930,184 L 934,182 L 938,181 L 942,178 L 946,176 L 949,174 L 953,171 L 957,168 L 961,165 L 965,162 L 969,159 L 972,156 L 976,153 L 980,150" fill="none" stroke="#ccc" stroke-width="1"/>
</defs>
<path d="M 20,150 L 24,153 L 28,156 L 31,159 L 35,162 L 39,165 L 43,168 L 47,171 L 51,174 L 54,176 L 58,178 L 62,181 L 66,182 L 70,184 L 73,186 L 77,187 L 81,188 L 85,189 L 89,190 L 93,190 L 96,190 L 100,190 L 104,189 L 108,189 L 112,188 L 115,187 L 119,185 L 123,184 L 127,182 L 131,180 L 135,178 L 138,176 L 142,173 L 146,170 L 150,168 L 154,165 L 157,162 L 161,159 L 165,156 L 169,153 L 173,149 L 177,146 L 180,143 L 184,140 L 188,137 L 192,134 L 196,131 L 199,128 L 203,126 L 207,123 L 211,121 L 215,119 L 219,117 L 222,115 L 226,114 L 230,113 L 234,112 L 238,111 L 242,110 L 245,110 L 249,110 L 253,110 L 257,111 L 261,111 L 264,112 L 268,113 L 272,115 L 276,116 L 280,118 L 284,120 L 287,123 L 291,125 L 295,127 L 299,130 L 303,133 L 306,136 L 310,139 L 314,142 L 318,145 L 322,148 L 326,151 L 329,154 L 333,158 L 337,161 L 341,164 L 345,167 L 348,169 L 352,172 L 356,175 L 360,177 L 364,179 L 368,181 L 371,183 L 375,185 L 379,186 L 383,188 L 387,188 L 390,189 L 394,190 L 398,190 L 402,190 L 406,190 L 410,189 L 413,188 L 417,188 L 421,186 L 425,185 L 429,183 L 432,181 L 436,179 L 440,177 L 444,175 L 448,172 L 452,169 L 455,167 L 459,164 L 463,161 L 467,158 L 471,154 L 474,151 L 478,148 L 482,145 L 486,142 L 490,139 L 494,136 L 497,133 L 501,130 L 505,127 L 509,125 L 513,123 L 516,120 L 520,118 L 524,116 L 528,115 L 532,113 L 536,112 L 539,111 L 543,111 L 547,110 L 551,110 L 555,110 L 558,110 L 562,111 L 566,112 L 570,113 L 574,114 L 578,115 L 581,117 L 585,119 L 589,121 L 593,123 L 597,126 L 601,128 L 604,131 L 608,134 L 612,137 L 616,140 L 620,143 L 623,146 L 627,149 L 631,153 L 635,156 L 639,159 L 643,162 L 646,165 L 650,168 L 654,170 L 658,173 L 662,176 L 665,178 L 669,180 L 673,182 L 677,184 L 681,185 L 685,187 L 688,188 L 692,189 L 696,189 L 700,190 L 704,190 L 707,190 L 711,190 L 715,189 L 719,188 L 723,187 L 727,186 L 730,184 L 734,182 L 738,181 L 742,178 L 746,176 L 749,174 L 753,171 L 757,168 L 761,165 L 765,162 L 769,159 L 772,156 L 776,153 L 780,150 L 220,150 L 224,153 L 228,156 L 231,159 L 235,162 L 239,165 L 243,168 L 247,171 L 251,174 L 254,176 L 258,178 L 262,181 L 266,182 L 270,184 L 273,186 L 277,187 L 281,188 L 285,189 L 289,190 L 293,190 L 296,190 L 300,190 L 304,189 L 308,189 L 312,188 L 315,187 L 319,185 L 323,184 L 327,182 L 331,180 L 335,178 L 338,176 L 342,173 L 346,170 L 350,168 L 354,165 L 357,162 L 361,159 L 365,156 L 369,153 L 373,149 L 377,146 L 380,143 L 384,140 L 388,137 L 392,134 L 396,131 L 399,128 L 403,126 L 407,123 L 411,121 L 415,119 L 419,117 L 422,115 L 426,114 L 430,113 L 434,112 L 438,111 L 442,110 L 445,110 L 449,110 L 453,110 L 457,111 L 461,111 L 464,112 L 468,113 L 472,115 L 476,116 L 480,118 L 484,120 L 487,123 L 491,125 L 495,127 L 499,130 L 503,133 L 506,136 L 510,139 L 514,142 L 518,145 L 522,148 L 526,151 L 529,154 L 533,158 L 537,161 L 541,164 L 545,167 L 548,169 L 552,172 L 556,175 L 560,177 L 564,179 L 568,181 L 571,183 L 575,185 L 579,186 L 583,188 L 587,188 L 590,189 L 594,190 L 598,190 L 602,190 L 606,190 L 610,189 L 613,188 L 617,188 L 621,186 L 625,185 L 629,183 L 632,181 L 636,179 L 640,177 L 644,175 L 648,172 L 652,169 L 655,167 L 659,164 L 663,161 L 667,158 L 671,154 L 674,151 L 678,148 L 682,145 L 686,142 L 690,139 L 694,136 L 697,133 L 701,130 L 705,127 L 709,125 L 713,123 L 716,120 L 720,118 L 724,116 L 728,115 L 732,113 L 736,112 L 739,111 L 743,111 L 747,110 L 751,110 L 755,110 L 758,110 L 762,111 L 766,112 L 770,113 L 774,114 L 778,115 L 781,117 L 785,119 L 789,121 L 793,123 L 797,126 L 801,128 L 804,131 L 808,134 L 812,137 L 816,140 L 820,143 L 823,146 L 827,149 L 831,153 L 835,156 L 839,159 L 843,162 L 846,165 L 850,168 L 854,170 L 858,173 L 862,176 L 865,178 L 869,180 L 873,182 L 877,184 L 881,185 L 885,187 L 888,188 L 892,189 L 896,189 L 900,190 L 904,190 L 907,190 L 911,190 L 915,189 L 919,188 L 923,187 L 927,186 L 930,184 L 934,182 L 938,181 L 942,178 L 946,176 L 949,174 L 953,171 L 957,168 L 961,165 L 965,162 L 969,159 L 972,156 L 976,153 L 980,150" fill="none" stroke="#e0e0e0" stroke-width="1"/>
<text font-family="sans-serif" font-size="14.0px" letter-spacing="0.5px">
  <textPath href="#p0" startOffset="0.0">This is a short paragraph to demonstrate curved sentences over a sine path.</textPath>
</svg>